<?xml version="1.0" encoding="utf-8"?>
<!-- Generator: Adobe Illustrator 19.0.0, SVG Export Plug-In . SVG Version: 6.00 Build 0)  -->
<svg version="1.1" id="Layer_1" xmlns="http://www.w3.org/2000/svg" xmlns:xlink="http://www.w3.org/1999/xlink" x="0px" y="0px"
	 viewBox="-173.2 392.7 65.4 10.1" style="enable-background:new -173.2 392.7 65.4 10.1;" xml:space="preserve">
<style type="text/css">
	.st0{fill:#425260;}
	.st1{fill:#2C3C50;}
	.st2{fill:#464F66;}
	.st3{fill:#425260;stroke:#425260;stroke-width:0.8;stroke-miterlimit:10;}
</style>
<g>
	<g>
		<g>
			<path class="st0" d="M-168.4,398.2l10.6-5.4l-8.8,6.4l5.2,3.4l3.6-9.8l-15,3.1L-168.4,398.2z M-168.4,398.2"/>
		</g>
		<g>
			<path class="st1" d="M-166.6,399.2l-1,3.4l-0.8-4.4l10.6-5.4L-166.6,399.2z M-166.6,399.2"/>
		</g>
	</g>
	<g>
		<path class="st2" d="M-166.6,399.2l-1,3.4l3.1-2L-166.6,399.2z M-166.6,399.2"/>
	</g>
</g>
<path class="st3" d="M-152.4,398l-1,1.1v2.9h-1.1v-8.5h1.1v4.2l0.9-1l2.9-3.2h1.4l-3.4,3.8l3.6,4.8h-1.3L-152.4,398z"/>
<path class="st3" d="M-145.8,402h-1.1v-8.5h1.1V402z"/>
<path class="st3" d="M-137.5,399.3c0,0.4-0.1,0.8-0.3,1.1s-0.4,0.6-0.6,0.9s-0.6,0.4-1,0.6s-0.8,0.2-1.3,0.2c-0.5,0-1-0.1-1.4-0.3
	s-0.8-0.5-1.1-0.8s-0.5-0.8-0.7-1.2s-0.2-1-0.2-1.6v-0.9c0-0.6,0.1-1.1,0.2-1.6s0.4-0.9,0.7-1.2s0.7-0.6,1.1-0.8s0.9-0.3,1.4-0.3
	c0.5,0,0.9,0.1,1.3,0.2s0.7,0.3,0.9,0.6s0.5,0.6,0.6,0.9s0.3,0.7,0.3,1.2h-1.1c0-0.3-0.1-0.6-0.2-0.8s-0.2-0.4-0.4-0.6
	s-0.4-0.3-0.6-0.4s-0.5-0.1-0.8-0.1c-0.4,0-0.7,0.1-1,0.2s-0.5,0.4-0.7,0.6s-0.3,0.6-0.4,1s-0.1,0.8-0.1,1.2v0.9
	c0,0.4,0,0.8,0.1,1.2s0.2,0.7,0.4,1s0.4,0.5,0.7,0.7s0.6,0.2,1,0.2c0.4,0,0.7,0,0.9-0.1s0.5-0.2,0.6-0.4s0.3-0.4,0.4-0.6
	s0.2-0.5,0.2-0.8H-137.5z"/>
<path class="st3" d="M-133.8,398l-1,1.1v2.9h-1.1v-8.5h1.1v4.2l0.9-1l2.9-3.2h1.4l-3.4,3.8l3.6,4.8h-1.3L-133.8,398z"/>
<path class="st3" d="M-122,398c0,0.6-0.1,1.2-0.2,1.7s-0.4,0.9-0.7,1.3s-0.7,0.6-1.1,0.8s-0.9,0.3-1.4,0.3c-0.5,0-1-0.1-1.4-0.3
	s-0.8-0.5-1.1-0.8c-0.3-0.4-0.5-0.8-0.7-1.3s-0.3-1.1-0.3-1.7v-0.5c0-0.6,0.1-1.2,0.3-1.7s0.4-0.9,0.7-1.3c0.3-0.4,0.7-0.6,1.1-0.8
	s0.9-0.3,1.4-0.3c0.5,0,1,0.1,1.4,0.3s0.8,0.5,1.1,0.8s0.5,0.8,0.7,1.3s0.2,1.1,0.2,1.7V398z M-123.2,397.5c0-0.5-0.1-1-0.2-1.3
	s-0.3-0.7-0.5-1s-0.4-0.5-0.7-0.6s-0.6-0.2-1-0.2c-0.3,0-0.7,0.1-0.9,0.2s-0.5,0.3-0.7,0.6s-0.4,0.6-0.5,1s-0.2,0.8-0.2,1.3v0.6
	c0,0.5,0.1,1,0.2,1.4s0.3,0.7,0.5,1s0.4,0.5,0.7,0.6s0.6,0.2,0.9,0.2c0.4,0,0.7-0.1,1-0.2s0.5-0.3,0.7-0.6s0.3-0.6,0.4-1
	s0.2-0.8,0.2-1.4V397.5z"/>
<path class="st3" d="M-115.7,398.2h-3.6v3.8h-1.1v-8.5h5.3v0.9h-4.2v2.9h3.6V398.2z"/>
<path class="st3" d="M-109,398.2h-3.6v3.8h-1.1v-8.5h5.3v0.9h-4.2v2.9h3.6V398.2z"/>
</svg>
